<svg xmlns="http://www.w3.org/2000/svg" width="43.754" height="35" viewBox="0 0 43.754 35">
  <path id="Icon_awesome-hands-helping" data-name="Icon awesome-hands-helping" d="M33.362,13.126H22.971v3.828a4.922,4.922,0,1,1-9.845,0V8.641L8.689,11.308a4.366,4.366,0,0,0-2.126,3.746v3.234L1.094,21.446a2.182,2.182,0,0,0-.8,2.988l5.469,9.475a2.188,2.188,0,0,0,2.988.8l7.069-4.081h9.339a4.379,4.379,0,0,0,4.375-4.375h1.094a2.185,2.185,0,0,0,2.188-2.188V19.689h.547A1.637,1.637,0,0,0,35,18.048V14.767A1.637,1.637,0,0,0,33.362,13.126Zm10.1-2.557L37.99,1.094A2.188,2.188,0,0,0,35,.294L27.934,4.375H20.947a4.408,4.408,0,0,0-2.318.663l-2.29,1.429A2.173,2.173,0,0,0,15.314,8.32v8.635a2.735,2.735,0,0,0,5.469,0V10.938H33.362a3.831,3.831,0,0,1,3.828,3.828v1.948l5.469-3.158a2.19,2.19,0,0,0,.8-2.988Z" transform="translate(0.002 -0.002)"/>
</svg>